<?xml version="1.0" standalone="no"?>
<!DOCTYPE svg PUBLIC "-//W3C//DTD SVG 20010904//EN"
 "http://www.w3.org/TR/2001/REC-SVG-20010904/DTD/svg10.dtd">
<svg version="1.0" xmlns="http://www.w3.org/2000/svg"
 width="260.000000pt" height="260.000000pt" viewBox="0 0 260.000000 260.000000"
 preserveAspectRatio="xMidYMid meet">
<metadata>
Created by potrace 1.11, written by Peter Selinger 2001-2013
</metadata>
<g transform="translate(0.000000,260.000000) scale(0.100000,-0.100000)"
fill="#000000" stroke="none">
<path d="M890 2040 l0 -280 745 0 745 0 0 280 0 280 -745 0 -745 0 0 -280z"/>
<path d="M687 2295 c-271 -74 -485 -406 -535 -825 -9 -75 -9 -310 0 -390 5
-36 19 -110 33 -165 14 -55 27 -108 29 -117 11 -43 77 -180 118 -243 112 -175
256 -281 407 -300 l41 -5 0 1030 0 1030 -22 -1 c-13 0 -45 -7 -71 -14z"/>
<path d="M890 570 l0 -280 745 0 745 0 0 280 0 280 -745 0 -745 0 0 -280z"/>
</g>
</svg>
